<svg width="35" height="35" viewBox="0 0 35 35" fill="none" xmlns="http://www.w3.org/2000/svg">
<path d="M17.5 0C7.83106 0 0 7.8303 0 17.4983C0 25.7217 5.64319 32.5468 13.2568 34.4709C13.1689 34.252 13.1257 33.9452 13.1257 33.6399V30.6644H10.9379C9.75681 30.6644 8.66213 30.1402 8.18106 29.1767C7.61213 28.1268 7.52426 26.508 6.08106 25.5013C5.64319 25.1514 5.99319 24.8014 6.47426 24.8446C7.39319 25.1067 8.13638 25.7202 8.83638 26.6376C9.53638 27.5564 9.84319 27.7754 11.1553 27.7754C11.7674 27.7754 12.7296 27.7322 13.6053 27.5996C14.0864 26.374 14.9174 25.2809 15.9243 24.7567C10.0621 24.0568 7.26213 21.1692 7.26213 17.2317C7.26213 15.5251 8.00532 13.9063 9.23106 12.5064C8.83787 11.1498 8.31213 8.35003 9.40681 7.25695C12.0326 7.25695 13.6068 8.96359 14 9.39993C15.3121 8.9621 16.7568 8.7 18.2432 8.7C19.7743 8.7 21.1743 8.9621 22.4864 9.39993C22.8796 8.9621 24.4553 7.25695 27.0796 7.25695C28.1296 8.30684 27.6485 11.1498 27.2106 12.5064C28.4364 13.8631 29.1364 15.5251 29.1364 17.2317C29.1364 21.1692 26.3796 24.0568 20.5621 24.6689C22.1811 25.4998 23.3189 27.8617 23.3189 29.6116V33.5967C23.3189 33.7278 23.2757 33.8588 23.2757 33.9899C30.1 31.628 35 25.1543 35 17.4983C35 7.8303 27.1689 0 17.5 0Z" fill="black"/>
</svg>
