<svg width="35" height="36" viewBox="0 0 35 36" fill="none" xmlns="http://www.w3.org/2000/svg">
<path d="M17.5039 8.564C12.5379 8.564 8.53235 12.5881 8.53235 17.5771C8.53235 22.5661 12.5379 26.5902 17.5039 26.5902C22.4699 26.5902 26.4755 22.5661 26.4755 17.5771C26.4755 12.5881 22.4699 8.564 17.5039 8.564ZM17.5039 23.4368C14.2948 23.4368 11.6712 20.8089 11.6712 17.5771C11.6712 14.3452 14.287 11.7174 17.5039 11.7174C20.7209 11.7174 23.3366 14.3452 23.3366 17.5771C23.3366 20.8089 20.7131 23.4368 17.5039 23.4368ZM28.935 8.19532C28.935 9.36412 27.9981 10.2976 26.8424 10.2976C25.679 10.2976 24.7499 9.35628 24.7499 8.19532C24.7499 7.03437 25.6868 6.09305 26.8424 6.09305C27.9981 6.09305 28.935 7.03437 28.935 8.19532ZM34.877 10.329C34.7443 7.51287 34.104 5.01839 32.0505 2.96318C30.0047 0.907977 27.5218 0.264745 24.7186 0.123548C21.8296 -0.0411825 13.1704 -0.0411825 10.2814 0.123548C7.48606 0.256901 5.00307 0.900132 2.94953 2.95534C0.895985 5.01054 0.263525 7.50503 0.122978 10.3211C-0.0409927 13.2235 -0.0409927 21.9228 0.122978 24.8252C0.255717 27.6413 0.895985 30.1358 2.94953 32.191C5.00307 34.2462 7.47825 34.8894 10.2814 35.0306C13.1704 35.1954 21.8296 35.1954 24.7186 35.0306C27.5218 34.8973 30.0047 34.2541 32.0505 32.191C34.0962 30.1358 34.7365 27.6413 34.877 24.8252C35.041 21.9228 35.041 13.2314 34.877 10.329ZM31.1447 27.9394C30.5357 29.4769 29.3567 30.6614 27.8185 31.2811C25.5151 32.1989 20.0494 31.9871 17.5039 31.9871C14.9585 31.9871 9.48494 32.191 7.18935 31.2811C5.65895 30.6692 4.47992 29.4847 3.86308 27.9394C2.94953 25.6253 3.16035 20.1343 3.16035 17.5771C3.16035 15.0199 2.95733 9.52101 3.86308 7.21479C4.47211 5.67731 5.65114 4.49282 7.18935 3.87312C9.49275 2.95534 14.9585 3.16713 17.5039 3.16713C20.0494 3.16713 25.5229 2.96318 27.8185 3.87312C29.3489 4.48497 30.5279 5.66946 31.1447 7.21479C32.0583 9.52885 31.8475 15.0199 31.8475 17.5771C31.8475 20.1343 32.0583 25.6332 31.1447 27.9394Z" fill="black"/>
</svg>
