<svg width="31" height="25" viewBox="0 0 31 25" fill="none" xmlns="http://www.w3.org/2000/svg">
<path d="M30.5 8.31474V21.6071C30.5 22.3438 30.2377 22.9743 29.7132 23.4989C29.1886 24.0234 28.558 24.2857 27.8214 24.2857H3.17858C2.44196 24.2857 1.81138 24.0234 1.28683 23.4989C0.762277 22.9743 0.5 22.3438 0.5 21.6071V8.31474C0.991072 8.86161 1.55469 9.3471 2.19085 9.77122C6.23103 12.5168 9.00447 14.442 10.5111 15.5469C11.1473 16.0156 11.6635 16.3811 12.0597 16.6434C12.4559 16.9057 12.9833 17.1736 13.6418 17.447C14.3002 17.7204 14.9141 17.8571 15.4832 17.8571H15.5168C16.0859 17.8571 16.6998 17.7204 17.3582 17.447C18.0167 17.1736 18.5441 16.9057 18.9403 16.6434C19.3365 16.3811 19.8527 16.0156 20.4888 15.5469C22.3862 14.1741 25.1652 12.2489 28.8259 9.77122C29.4621 9.33595 30.0201 8.85046 30.5 8.31474ZM30.5 3.39287C30.5 4.27457 30.2266 5.1172 29.6797 5.92077C29.1328 6.72434 28.452 7.41072 27.6373 7.97992C23.4408 10.8929 20.8292 12.7065 19.8024 13.4208C19.6908 13.4989 19.4536 13.6691 19.091 13.9314C18.7282 14.1937 18.4269 14.4057 18.187 14.5675C17.947 14.7294 17.6568 14.9107 17.3164 15.1116C16.976 15.3125 16.6551 15.4632 16.3538 15.5636C16.0524 15.6641 15.7734 15.7144 15.5168 15.7144H15.4832C15.2266 15.7144 14.9476 15.6641 14.6462 15.5636C14.3449 15.4631 14.024 15.3125 13.6836 15.1116C13.3432 14.9107 13.053 14.7294 12.8131 14.5675C12.5731 14.4057 12.2718 14.1936 11.909 13.9314C11.5463 13.6691 11.3091 13.4989 11.1975 13.4208C10.1819 12.7065 8.71986 11.6881 6.81137 10.3655C4.90289 9.04297 3.75892 8.24777 3.37947 7.97992C2.6875 7.51117 2.0346 6.86664 1.42076 6.04632C0.80692 5.226 0.5 4.46429 0.5 3.76117C0.5 2.89064 0.731585 2.16519 1.19476 1.58482C1.65793 1.00447 2.3192 0.714294 3.17858 0.714294H27.8214C28.5469 0.714294 29.1747 0.976569 29.7048 1.50112C30.2349 2.02567 30.5 2.65625 30.5 3.39287Z" fill="black"/>
</svg>
