<svg width="35" height="35" viewBox="0 0 35 35" fill="none" xmlns="http://www.w3.org/2000/svg">
<path d="M17.5 28.5216C16.7849 28.5216 16.2043 29.1022 16.2043 29.8173V33.7043C16.2043 34.4195 16.7849 35 17.5 35C18.2151 35 18.7957 34.4195 18.7957 33.7043V29.8173C18.7957 29.1022 18.2151 28.5216 17.5 28.5216ZM17.5 0C16.7849 0 16.2043 0.580529 16.2043 1.29567V5.18269C16.2043 5.89784 16.7849 6.47837 17.5 6.47837C18.2151 6.47837 18.7957 5.89784 18.7957 5.18269V1.29567C18.7957 0.580529 18.2151 0 17.5 0ZM6.47837 17.5C6.47837 16.7849 5.89784 16.2043 5.18269 16.2043H1.29567C0.580529 16.2043 0 16.7849 0 17.5C0 18.2151 0.580529 18.7957 1.29567 18.7957H5.18269C5.89784 18.7957 6.47837 18.2151 6.47837 17.5ZM33.7043 16.2043H29.8173C29.1022 16.2043 28.5216 16.7849 28.5216 17.5C28.5216 18.2151 29.1022 18.7957 29.8173 18.7957H33.7043C34.4195 18.7957 35 18.2151 35 17.5C35 16.7849 34.4195 16.2043 33.7043 16.2043ZM8.79207 24.9123C8.44712 24.9123 8.11899 25.0469 7.875 25.2909L5.1238 28.0421C4.87981 28.2861 4.74519 28.6142 4.74519 28.9591C4.74519 29.3041 4.87981 29.6322 5.1238 29.8762C5.36779 30.1202 5.69591 30.2548 6.04087 30.2548C6.38582 30.2548 6.71394 30.1202 6.95793 29.8762L9.70913 27.125C10.2139 26.6202 10.2139 25.7957 9.70913 25.2909C9.46514 25.0469 9.13702 24.9123 8.79207 24.9123ZM26.2079 10.0877C26.5529 10.0877 26.881 9.95312 27.125 9.70913L29.8762 6.95793C30.1202 6.71394 30.2548 6.38582 30.2548 6.04087C30.2548 5.69591 30.1202 5.36779 29.8762 5.1238C29.6322 4.87981 29.3041 4.74519 28.9591 4.74519C28.6142 4.74519 28.2861 4.87981 28.0421 5.1238L25.2909 7.875C25.0469 8.11899 24.9123 8.44712 24.9123 8.79207C24.9123 9.13702 25.0469 9.46514 25.2909 9.70913C25.5349 9.95312 25.863 10.0877 26.2079 10.0877ZM6.95793 5.1238C6.71394 4.87981 6.38582 4.74519 6.04087 4.74519C5.69591 4.74519 5.36779 4.87981 5.1238 5.1238C4.87981 5.36779 4.74519 5.69591 4.74519 6.04087C4.74519 6.38582 4.87981 6.71394 5.1238 6.95793L7.875 9.70913C8.11899 9.95312 8.44712 10.0877 8.79207 10.0877C9.13702 10.0877 9.46514 9.95312 9.70913 9.70913C9.95312 9.46514 10.0877 9.13702 10.0877 8.79207C10.0877 8.44712 9.95312 8.11899 9.70913 7.875L6.95793 5.1238ZM27.125 25.2909C26.881 25.0469 26.5529 24.9123 26.2079 24.9123C25.863 24.9123 25.5349 25.0469 25.2909 25.2909C24.7861 25.7957 24.7861 26.6202 25.2909 27.125L28.0421 29.8762C28.2861 30.1202 28.6142 30.2548 28.9591 30.2548C29.3041 30.2548 29.6322 30.1202 29.8762 29.8762C30.1202 29.6322 30.2548 29.3041 30.2548 28.9591C30.2548 28.6142 30.1202 28.2861 29.8762 28.0421L27.125 25.2909ZM17.5 9.42308C13.0493 9.42308 9.42308 13.0493 9.42308 17.5C9.42308 21.9507 13.0493 25.5769 17.5 25.5769C21.9507 25.5769 25.5769 21.9507 25.5769 17.5C25.5769 13.0493 21.9507 9.42308 17.5 9.42308Z" fill="#737373"/>
</svg>
