<svg width="35" height="36" viewBox="0 0 35 36" fill="none" xmlns="http://www.w3.org/2000/svg">
<path d="M16.6444 0.0204058C7.32564 0.464113 -0.0281884 8.22486 8.12319e-05 17.5542C0.00868871 20.3957 0.694671 23.0777 1.90478 25.4474L0.0468317 34.4661C-0.0536733 34.954 0.386321 35.3811 0.870956 35.2664L9.70822 33.1726C11.9787 34.3036 14.5288 34.9568 17.2278 34.998C26.7525 35.1435 34.6944 27.5806 34.9913 18.0595C35.3095 7.85347 26.8861 -0.467351 16.6444 0.0204058ZM27.1892 27.1892C24.6011 29.7773 21.1601 31.2026 17.5 31.2026C15.3569 31.2026 13.3051 30.7218 11.4015 29.7735L10.1707 29.1604L4.75259 30.4441L5.89308 24.9078L5.28676 23.7204C4.29851 21.785 3.79742 19.6921 3.79742 17.5C3.79742 13.8399 5.22271 10.3989 7.81078 7.81077C10.3757 5.24582 13.8729 3.79732 17.5003 3.79732C21.1603 3.7974 24.6012 5.2227 27.1893 7.81068C29.7773 10.3987 31.2026 13.8397 31.2027 17.4998C31.2026 21.1272 29.7541 24.6244 27.1892 27.1892Z" fill="black"/>
<path d="M25.9931 21.2952L22.6033 20.3218C22.1577 20.1939 21.6778 20.3203 21.3531 20.6512L20.5241 21.4957C20.1746 21.8519 19.6442 21.9663 19.1816 21.7791C17.5781 21.1302 14.205 18.1311 13.3435 16.6309C13.095 16.1982 13.1361 15.6572 13.4413 15.2623L14.165 14.326C14.4485 13.9592 14.5083 13.4666 14.3208 13.0425L12.8947 9.81699C12.5531 9.04443 11.5658 8.81954 10.9209 9.36501C9.9748 10.1652 8.85229 11.3811 8.71583 12.7282C8.47524 15.1032 9.4938 18.0971 13.3455 21.6919C17.7952 25.8451 21.3585 26.3937 23.6786 25.8317C24.9945 25.513 26.0462 24.2352 26.7099 23.189C27.1623 22.4756 26.805 21.5283 25.9931 21.2952Z" fill="black"/>
</svg>
